<svg width="520" height="320" viewBox="0 0 520 320" fill="none" xmlns="http://www.w3.org/2000/svg">
  <rect width="520" height="320" rx="28" fill="#ECFEFF"/>
  <circle cx="170" cy="160" r="74" fill="#CFFAFE"/>
  <circle cx="170" cy="160" r="34" fill="#06B6D4"/>
  <path d="M170 86V48M222 108L250 80M244 160H282M222 212L250 240M170 234V272M118 212L90 240M96 160H58M118 108L90 80" stroke="#0891B2" stroke-width="10" stroke-linecap="round"/>
  <rect x="286" y="90" width="146" height="42" rx="21" fill="white" fill-opacity="0.9"/>
  <text x="316" y="117" fill="#111827" font-size="22" font-family="ui-sans-serif, system-ui, -apple-system, Segoe UI, Roboto, Helvetica, Arial" font-weight="700">replay</text>
  <rect x="286" y="144" width="146" height="42" rx="21" fill="white" fill-opacity="0.9"/>
  <text x="316" y="171" fill="#111827" font-size="22" font-family="ui-sans-serif, system-ui, -apple-system, Segoe UI, Roboto, Helvetica, Arial" font-weight="700">tuning</text>
  <rect x="286" y="198" width="146" height="42" rx="21" fill="white" fill-opacity="0.9"/>
  <text x="316" y="225" fill="#111827" font-size="22" font-family="ui-sans-serif, system-ui, -apple-system, Segoe UI, Roboto, Helvetica, Arial" font-weight="700">adaptation</text>
  <rect x="60" y="40" width="126" height="44" rx="22" fill="#111827"/>
  <text x="84" y="68" fill="white" font-size="22" font-family="ui-sans-serif, system-ui, -apple-system, Segoe UI, Roboto, Helvetica, Arial" font-weight="700">learning</text>
</svg>