<svg width="1200" height="420" viewBox="0 0 1200 420" fill="none" xmlns="http://www.w3.org/2000/svg">
  <defs>
    <linearGradient id="bg" x1="120" y1="40" x2="1080" y2="380" gradientUnits="userSpaceOnUse">
      <stop stop-color="#F5F3FF"/>
      <stop offset="0.5" stop-color="#EEF2FF"/>
      <stop offset="1" stop-color="#ECFEFF"/>
    </linearGradient>
    <linearGradient id="orb" x1="700" y1="120" x2="930" y2="300" gradientUnits="userSpaceOnUse">
      <stop stop-color="#8B5CF6"/>
      <stop offset="0.5" stop-color="#6366F1"/>
      <stop offset="1" stop-color="#06B6D4"/>
    </linearGradient>
  </defs>
  <rect width="1200" height="420" rx="28" fill="url(#bg)"/>
  <circle cx="180" cy="84" r="52" fill="#DDD6FE" opacity="0.9"/>
  <circle cx="1040" cy="88" r="42" fill="#CFFAFE" opacity="0.9"/>
  <circle cx="1048" cy="336" r="64" fill="#E9D5FF" opacity="0.72"/>

  <text x="76" y="132" fill="#111827" font-size="54" font-family="ui-sans-serif, system-ui, -apple-system, Segoe UI, Roboto, Helvetica, Arial" font-weight="700">From agent history</text>
  <text x="76" y="192" fill="#111827" font-size="54" font-family="ui-sans-serif, system-ui, -apple-system, Segoe UI, Roboto, Helvetica, Arial" font-weight="700">to living memory</text>
  <text x="78" y="248" fill="#4B5563" font-size="24" font-family="ui-sans-serif, system-ui, -apple-system, Segoe UI, Roboto, Helvetica, Arial">Capture experience · preserve trajectory · improve recall</text>

  <rect x="78" y="286" width="156" height="44" rx="22" fill="#111827"/>
  <text x="106" y="314" fill="white" font-size="20" font-family="ui-sans-serif, system-ui, -apple-system, Segoe UI, Roboto, Helvetica, Arial" font-weight="700">memory brain</text>

  <g>
    <circle cx="818" cy="210" r="96" fill="url(#orb)" opacity="0.16"/>
    <circle cx="818" cy="210" r="64" fill="url(#orb)" opacity="0.26"/>
    <circle cx="818" cy="210" r="38" fill="url(#orb)"/>

    <circle cx="700" cy="152" r="11" fill="#8B5CF6"/>
    <circle cx="748" cy="104" r="9" fill="#A78BFA"/>
    <circle cx="882" cy="104" r="9" fill="#22D3EE"/>
    <circle cx="938" cy="156" r="11" fill="#6366F1"/>
    <circle cx="938" cy="264" r="11" fill="#22D3EE"/>
    <circle cx="884" cy="316" r="9" fill="#8B5CF6"/>
    <circle cx="748" cy="316" r="9" fill="#6366F1"/>
    <circle cx="696" cy="264" r="11" fill="#A78BFA"/>

    <path d="M712 160L778 188M756 112L794 170M874 112L842 170M926 160L858 188M926 256L858 228M874 308L842 248M756 308L794 248M708 256L778 228" stroke="#6366F1" stroke-width="5" stroke-linecap="round" opacity="0.7"/>
  </g>

  <g opacity="0.92">
    <rect x="972" y="120" width="146" height="52" rx="18" fill="white" fill-opacity="0.86"/>
    <text x="1000" y="152" fill="#111827" font-size="18" font-family="ui-sans-serif, system-ui, -apple-system, Segoe UI, Roboto, Helvetica, Arial" font-weight="700">captures turns</text>
    <rect x="972" y="196" width="128" height="52" rx="18" fill="white" fill-opacity="0.86"/>
    <text x="1000" y="228" fill="#111827" font-size="18" font-family="ui-sans-serif, system-ui, -apple-system, Segoe UI, Roboto, Helvetica, Arial" font-weight="700">better recall</text>
    <rect x="972" y="272" width="136" height="52" rx="18" fill="white" fill-opacity="0.86"/>
    <text x="1000" y="304" fill="#111827" font-size="18" font-family="ui-sans-serif, system-ui, -apple-system, Segoe UI, Roboto, Helvetica, Arial" font-weight="700">ready to learn</text>
  </g>
</svg>